<?xml version="1.0" encoding="UTF-8"?>
<svg viewBox="0 0 1000 1000" xmlns="http://www.w3.org/2000/svg">
  <!-- Gate/fence icon -->
  <!-- Left post -->
  <rect x="100" y="200" width="60" height="650" fill="none" stroke="#000" stroke-width="40"/>
  <!-- Right post -->
  <rect x="840" y="200" width="60" height="650" fill="none" stroke="#000" stroke-width="40"/>
  <!-- Post caps -->
  <rect x="80" y="150" width="100" height="70" rx="10" fill="none" stroke="#000" stroke-width="30"/>
  <rect x="820" y="150" width="100" height="70" rx="10" fill="none" stroke="#000" stroke-width="30"/>
  <!-- Top rail -->
  <line x1="160" y1="350" x2="840" y2="350" stroke="#000" stroke-width="35"/>
  <!-- Bottom rail -->
  <line x1="160" y1="600" x2="840" y2="600" stroke="#000" stroke-width="35"/>
  <!-- Vertical bars -->
  <line x1="280" y1="350" x2="280" y2="850" stroke="#000" stroke-width="30"/>
  <line x1="410" y1="350" x2="410" y2="850" stroke="#000" stroke-width="30"/>
  <line x1="500" y1="350" x2="500" y2="850" stroke="#000" stroke-width="30"/>
  <line x1="590" y1="350" x2="590" y2="850" stroke="#000" stroke-width="30"/>
  <line x1="720" y1="350" x2="720" y2="850" stroke="#000" stroke-width="30"/>
  <!-- Diagonal cross on left panel -->
  <line x1="160" y1="350" x2="500" y2="600" stroke="#000" stroke-width="20"/>
  <line x1="500" y1="350" x2="160" y2="600" stroke="#000" stroke-width="20"/>
  <!-- Diagonal cross on right panel -->
  <line x1="500" y1="350" x2="840" y2="600" stroke="#000" stroke-width="20"/>
  <line x1="840" y1="350" x2="500" y2="600" stroke="#000" stroke-width="20"/>
</svg>
